<svg width="486" height="487" viewBox="0 0 486 487" fill="none" xmlns="http://www.w3.org/2000/svg">
<g clip-path="url(#clip0_72_151)">
<path d="M351.313 165.16L333.033 183.447C333.033 183.447 320.84 189.54 308.653 177.347C296.46 165.16 302.553 152.967 302.553 152.967L320.84 134.68C326.94 128.587 319.613 123 314.113 123C287.107 123 265.22 144.887 265.22 171.887C265.22 175.68 265.7 179.36 266.513 182.907L225.187 224.233L261.753 260.8L303.08 219.48C306.633 220.293 310.307 220.773 314.107 220.773C341.107 220.773 362.993 198.887 362.993 171.887C363 166.353 357.407 159.067 351.313 165.16ZM224.467 225.427L143.207 306.68C133.24 316.653 133.24 332.82 143.207 342.793C153.187 352.76 169.347 352.76 179.32 342.793L260.567 261.54L224.467 225.427ZM161.42 335.253C155.96 335.253 151.54 330.827 151.54 325.373C151.54 319.92 155.967 315.487 161.42 315.487C166.88 315.487 171.3 319.913 171.3 325.373C171.3 330.827 166.88 335.253 161.42 335.253Z" fill="white"/>
<path d="M328.533 344.86C336.307 352.633 348.68 353 356.007 345.667C363.34 338.333 362.973 325.967 355.2 318.193L200.1 163.093C192.32 155.313 179.96 154.953 172.627 162.287C165.293 169.62 165.66 181.987 173.433 189.76L328.533 344.86Z" fill="white"/>
<path d="M265.96 128.953C265.96 128.953 225.96 108.953 192.627 142.287L145.96 188.953C145.96 188.953 139.293 182.287 132.627 188.953L125.96 195.62C125.96 195.62 119.293 202.287 125.96 208.953L152.627 235.62C152.627 235.62 159.293 242.287 165.96 235.62L172.627 228.953C172.627 228.953 179.293 222.287 172.627 215.62L172.107 215.1C177.24 210.147 184.927 205.1 192.627 208.953L219.293 182.287C219.293 182.287 212.627 162.287 225.96 148.953C239.293 135.62 245.96 135.62 259.293 135.62C272.627 135.62 265.96 128.953 265.96 128.953Z" fill="white"/>
</g>
<circle cx="243" cy="243" r="167.399" stroke="white" stroke-width="22"/>
<rect y="227.595" width="149.08" height="29.816" rx="14.908" fill="white"/>
<rect x="336.92" y="227.595" width="149.08" height="29.816" rx="14.908" fill="white"/>
<rect x="257.411" width="149.08" height="29.816" rx="14.908" transform="rotate(90 257.411 0)" fill="white"/>
<rect x="257.411" y="337.914" width="149.08" height="29.816" rx="14.908" transform="rotate(90 257.411 337.914)" fill="white"/>
<defs>
<clipPath id="clip0_72_151">
<rect width="240" height="240" fill="white" transform="translate(123 123)"/>
</clipPath>
</defs>
</svg>
